{
	"asset":{
		"version":"2.0",
		"generator":"Created using the official Cinema 4D glTF Exporter 1.000x284978"
	},
	"scenes":[{
		"nodes":[0]
	}],
	"bufferViews":[{
		"byteOffset":0,
		"buffer":0,
		"byteLength":3384,
		"target":34963
	},
	{
		"byteOffset":3384,
		"buffer":0,
		"byteLength":4056,
		"target":34962
	},
	{
		"byteOffset":0,
		"buffer":1,
		"byteLength":252,
		"target":34963
	},
	{
		"byteOffset":252,
		"buffer":1,
		"byteLength":492,
		"target":34962
	},
	{
		"byteOffset":0,
		"buffer":2,
		"byteLength":2328,
		"target":34963
	},
	{
		"byteOffset":2328,
		"buffer":2,
		"byteLength":2940,
		"target":34962
	},
	{
		"byteOffset":0,
		"buffer":3,
		"byteLength":180,
		"target":34963
	},
	{
		"byteOffset":180,
		"buffer":3,
		"byteLength":396,
		"target":34962
	},
	{
		"byteOffset":0,
		"buffer":4,
		"byteLength":96,
		"target":34963
	},
	{
		"byteOffset":96,
		"buffer":4,
		"byteLength":312,
		"target":34962
	},
	{
		"byteOffset":0,
		"buffer":5,
		"byteLength":5376,
		"target":34963
	},
	{
		"byteOffset":5376,
		"buffer":5,
		"byteLength":6912,
		"target":34962
	},
	{
		"byteOffset":0,
		"buffer":6,
		"byteLength":1536,
		"target":34963
	},
	{
		"byteOffset":1536,
		"buffer":6,
		"byteLength":2304,
		"target":34962
	},
	{
		"byteOffset":0,
		"buffer":7,
		"byteLength":2304,
		"target":34963
	},
	{
		"byteOffset":2304,
		"buffer":7,
		"byteLength":3072,
		"target":34962
	},
	{
		"byteOffset":0,
		"buffer":8,
		"byteLength":9216,
		"target":34963
	},
	{
		"byteOffset":9216,
		"buffer":8,
		"byteLength":12288,
		"target":34962
	},
	{
		"byteOffset":0,
		"buffer":9,
		"byteLength":360,
		"target":34963
	},
	{
		"byteOffset":360,
		"buffer":9,
		"byteLength":768,
		"target":34962
	},
	{
		"byteOffset":0,
		"buffer":10,
		"byteLength":1896,
		"target":34963
	},
	{
		"byteOffset":1896,
		"buffer":10,
		"byteLength":3072,
		"target":34962
	},
	{
		"byteOffset":0,
		"buffer":11,
		"byteLength":5376,
		"target":34963
	},
	{
		"byteOffset":5376,
		"buffer":11,
		"byteLength":6912,
		"target":34962
	},
	{
		"byteOffset":0,
		"buffer":12,
		"byteLength":1536,
		"target":34963
	},
	{
		"byteOffset":1536,
		"buffer":12,
		"byteLength":2304,
		"target":34962
	},
	{
		"byteOffset":0,
		"buffer":13,
		"byteLength":2304,
		"target":34963
	},
	{
		"byteOffset":2304,
		"buffer":13,
		"byteLength":3072,
		"target":34962
	},
	{
		"byteOffset":0,
		"buffer":14,
		"byteLength":9216,
		"target":34963
	},
	{
		"byteOffset":9216,
		"buffer":14,
		"byteLength":12288,
		"target":34962
	},
	{
		"byteOffset":0,
		"buffer":15,
		"byteLength":360,
		"target":34963
	},
	{
		"byteOffset":360,
		"buffer":15,
		"byteLength":768,
		"target":34962
	},
	{
		"byteOffset":0,
		"buffer":16,
		"byteLength":1896,
		"target":34963
	},
	{
		"byteOffset":1896,
		"buffer":16,
		"byteLength":3072,
		"target":34962
	},
	{
		"byteOffset":0,
		"buffer":17,
		"byteLength":2832,
		"target":34963
	},
	{
		"byteOffset":2832,
		"buffer":17,
		"byteLength":2880,
		"target":34962
	},
	{
		"byteOffset":0,
		"buffer":18,
		"byteLength":3372,
		"target":34963
	},
	{
		"byteOffset":3372,
		"buffer":18,
		"byteLength":3960,
		"target":34962
	},
	{
		"byteOffset":0,
		"buffer":19,
		"byteLength":120,
		"target":34963
	},
	{
		"byteOffset":120,
		"buffer":19,
		"byteLength":288,
		"target":34962
	},
	{
		"byteOffset":0,
		"buffer":20,
		"byteLength":36,
		"target":34963
	},
	{
		"byteOffset":36,
		"buffer":20,
		"byteLength":120,
		"target":34962
	},
	{
		"byteOffset":0,
		"buffer":21,
		"byteLength":528,
		"target":34963
	},
	{
		"byteOffset":528,
		"buffer":21,
		"byteLength":1200,
		"target":34962
	},
	{
		"byteOffset":0,
		"buffer":22,
		"byteLength":1152,
		"target":34963
	},
	{
		"byteOffset":1152,
		"buffer":22,
		"byteLength":1536,
		"target":34962
	},
	{
		"byteOffset":0,
		"buffer":23,
		"byteLength":27216,
		"target":34963
	},
	{
		"byteOffset":27216,
		"buffer":23,
		"byteLength":27648,
		"target":34962
	}],
	"nodes":[{
		"name":"Symmetry",
		"children":[1]
	},
	{
		"name":"base",
		"children":[2,
		3,
		4,
		5,
		6,
		7,
		14,
		21,
		22,
		27]
	},
	{
		"name":"base-Mat",
		"mesh":0
	},
	{
		"name":"base-Mat.3",
		"mesh":1
	},
	{
		"name":"base-Mat.2",
		"mesh":2
	},
	{
		"name":"base-Mat.4",
		"mesh":3
	},
	{
		"name":"base-Mat.1",
		"mesh":4
	},
	{
		"rotation":[0.0,
		0.0,
		0.0,
		-1.0],
		"name":"réacteurs inférieurs Instance",
		"translation":[-0.1077648177742958,
		1.0509999990463257,
		-4.652805805206299],
		"scale":[1.0,
		1.0,
		1.0],
		"children":[8,
		9,
		10,
		11,
		12,
		13]
	},
	{
		"name":"réacteurs inférieurs-Mat",
		"mesh":5
	},
	{
		"name":"réacteurs inférieurs-Mat.3",
		"mesh":6
	},
	{
		"name":"réacteurs inférieurs-Mat.5",
		"mesh":7
	},
	{
		"name":"réacteurs inférieurs-Mat.2",
		"mesh":8
	},
	{
		"name":"réacteurs inférieurs-Mat.4",
		"mesh":9
	},
	{
		"name":"réacteurs inférieurs-Mat.7",
		"mesh":10
	},
	{
		"rotation":[0.0,
		0.0,
		0.0,
		-1.0],
		"name":"réacteurs inférieurs",
		"translation":[-0.1077648177742958,
		-60.05124282836914,
		-4.652805805206299],
		"scale":[1.0,
		1.0,
		1.0],
		"children":[15,
		16,
		17,
		18,
		19,
		20]
	},
	{
		"name":"réacteurs inférieurs-Mat",
		"mesh":11
	},
	{
		"name":"réacteurs inférieurs-Mat.3",
		"mesh":12
	},
	{
		"name":"réacteurs inférieurs-Mat.5",
		"mesh":13
	},
	{
		"name":"réacteurs inférieurs-Mat.2",
		"mesh":14
	},
	{
		"name":"réacteurs inférieurs-Mat.4",
		"mesh":15
	},
	{
		"name":"réacteurs inférieurs-Mat.7",
		"mesh":16
	},
	{
		"rotation":[0.0,
		0.0,
		0.0,
		-1.0],
		"name":"supports réacteurs",
		"translation":[82.0,
		5.900000095367432,
		144.28677368164063],
		"scale":[1.0,
		1.0,
		1.0],
		"mesh":17
	},
	{
		"rotation":[0.0,
		0.0,
		0.0,
		-1.0],
		"name":"ailes",
		"translation":[82.0,
		6.0,
		0.0],
		"scale":[1.0,
		1.0,
		1.0],
		"children":[23,
		24,
		25,
		26]
	},
	{
		"name":"ailes-Mat",
		"mesh":18
	},
	{
		"name":"ailes-Mat.4",
		"mesh":19
	},
	{
		"name":"ailes-Mat.6",
		"mesh":20
	},
	{
		"name":"ailes-Mat.3",
		"mesh":21
	},
	{
		"name":"armes",
		"children":[28,
		29]
	},
	{
		"name":"armes-Mat.2",
		"mesh":22
	},
	{
		"name":"armes-Mat",
		"mesh":23
	}],
	"meshes":[{
		"name":"base-Mat",
		"primitives":[{
			"attributes":{
				"POSITION":1
			},
			"indices":0,
			"material":0
		}]
	},
	{
		"name":"base-Mat.3",
		"primitives":[{
			"attributes":{
				"POSITION":3
			},
			"indices":2,
			"material":1
		}]
	},
	{
		"name":"base-Mat.2",
		"primitives":[{
			"attributes":{
				"POSITION":5
			},
			"indices":4,
			"material":2
		}]
	},
	{
		"name":"base-Mat.4",
		"primitives":[{
			"attributes":{
				"POSITION":7
			},
			"indices":6,
			"material":3
		}]
	},
	{
		"name":"base-Mat.1",
		"primitives":[{
			"attributes":{
				"POSITION":9
			},
			"indices":8,
			"material":4
		}]
	},
	{
		"name":"réacteurs inférieurs-Mat",
		"primitives":[{
			"attributes":{
				"POSITION":11
			},
			"indices":10,
			"material":0
		}]
	},
	{
		"name":"réacteurs inférieurs-Mat.3",
		"primitives":[{
			"attributes":{
				"POSITION":13
			},
			"indices":12,
			"material":1
		}]
	},
	{
		"name":"réacteurs inférieurs-Mat.5",
		"primitives":[{
			"attributes":{
				"POSITION":15
			},
			"indices":14,
			"material":5
		}]
	},
	{
		"name":"réacteurs inférieurs-Mat.2",
		"primitives":[{
			"attributes":{
				"POSITION":17
			},
			"indices":16,
			"material":2
		}]
	},
	{
		"name":"réacteurs inférieurs-Mat.4",
		"primitives":[{
			"attributes":{
				"POSITION":19
			},
			"indices":18,
			"material":3
		}]
	},
	{
		"name":"réacteurs inférieurs-Mat.7",
		"primitives":[{
			"attributes":{
				"POSITION":21
			},
			"indices":20,
			"material":6
		}]
	},
	{
		"name":"réacteurs inférieurs-Mat",
		"primitives":[{
			"attributes":{
				"POSITION":23
			},
			"indices":22,
			"material":0
		}]
	},
	{
		"name":"réacteurs inférieurs-Mat.3",
		"primitives":[{
			"attributes":{
				"POSITION":25
			},
			"indices":24,
			"material":1
		}]
	},
	{
		"name":"réacteurs inférieurs-Mat.5",
		"primitives":[{
			"attributes":{
				"POSITION":27
			},
			"indices":26,
			"material":5
		}]
	},
	{
		"name":"réacteurs inférieurs-Mat.2",
		"primitives":[{
			"attributes":{
				"POSITION":29
			},
			"indices":28,
			"material":2
		}]
	},
	{
		"name":"réacteurs inférieurs-Mat.4",
		"primitives":[{
			"attributes":{
				"POSITION":31
			},
			"indices":30,
			"material":3
		}]
	},
	{
		"name":"réacteurs inférieurs-Mat.7",
		"primitives":[{
			"attributes":{
				"POSITION":33
			},
			"indices":32,
			"material":6
		}]
	},
	{
		"name":"supports réacteurs",
		"primitives":[{
			"attributes":{
				"POSITION":35
			},
			"indices":34
		}]
	},
	{
		"name":"ailes-Mat",
		"primitives":[{
			"attributes":{
				"POSITION":37
			},
			"indices":36,
			"material":0
		}]
	},
	{
		"name":"ailes-Mat.4",
		"primitives":[{
			"attributes":{
				"POSITION":39
			},
			"indices":38,
			"material":3
		}]
	},
	{
		"name":"ailes-Mat.6",
		"primitives":[{
			"attributes":{
				"POSITION":41
			},
			"indices":40,
			"material":7
		}]
	},
	{
		"name":"ailes-Mat.3",
		"primitives":[{
			"attributes":{
				"POSITION":43
			},
			"indices":42,
			"material":1
		}]
	},
	{
		"name":"armes-Mat.2",
		"primitives":[{
			"attributes":{
				"POSITION":45
			},
			"indices":44,
			"material":2
		}]
	},
	{
		"name":"armes-Mat",
		"primitives":[{
			"attributes":{
				"POSITION":47
			},
			"indices":46,
			"material":0
		}]
	}],
	"accessors":[{
		"bufferView":0,
		"type":"SCALAR",
		"count":1692,
		"componentType":5123,
		"byteOffset":0,
		"min":[0],
		"max":[337]
	},
	{
		"bufferView":1,
		"type":"VEC3",
		"count":338,
		"componentType":5126,
		"byteOffset":0,
		"min":[-59.717716217041019,
		2.0694546699523927,
		-181.5745849609375],
		"max":[59.717716217041019,
		41.52332305908203,
		175.7456817626953]
	},
	{
		"bufferView":2,
		"type":"SCALAR",
		"count":126,
		"componentType":5123,
		"byteOffset":0,
		"min":[0],
		"max":[40]
	},
	{
		"bufferView":3,
		"type":"VEC3",
		"count":41,
		"componentType":5126,
		"byteOffset":0,
		"min":[-16.39596176147461,
		20.49472999572754,
		-181.5745849609375],
		"max":[16.39596176147461,
		28.18363380432129,
		-94.26036071777344]
	},
	{
		"bufferView":4,
		"type":"SCALAR",
		"count":1164,
		"componentType":5123,
		"byteOffset":0,
		"min":[0],
		"max":[244]
	},
	{
		"bufferView":5,
		"type":"VEC3",
		"count":245,
		"componentType":5126,
		"byteOffset":0,
		"min":[-59.717716217041019,
		-40.8907585144043,
		-166.6826934814453],
		"max":[59.717716217041019,
		41.52332305908203,
		175.7456817626953]
	},
	{
		"bufferView":6,
		"type":"SCALAR",
		"count":90,
		"componentType":5123,
		"byteOffset":0,
		"min":[0],
		"max":[32]
	},
	{
		"bufferView":7,
		"type":"VEC3",
		"count":33,
		"componentType":5126,
		"byteOffset":0,
		"min":[-34.269954681396487,
		0.8283905386924744,
		-123.37317657470703],
		"max":[34.269954681396487,
		25.685932159423829,
		148.3917236328125]
	},
	{
		"bufferView":8,
		"type":"SCALAR",
		"count":48,
		"componentType":5123,
		"byteOffset":0,
		"min":[0],
		"max":[25]
	},
	{
		"bufferView":9,
		"type":"VEC3",
		"count":26,
		"componentType":5126,
		"byteOffset":0,
		"min":[-25.45794677734375,
		27.3524112701416,
		-88.6668930053711],
		"max":[25.45794677734375,
		39.22703552246094,
		-14.4488525390625]
	},
	{
		"bufferView":10,
		"type":"SCALAR",
		"count":2688,
		"componentType":5123,
		"byteOffset":0,
		"min":[0],
		"max":[575]
	},
	{
		"bufferView":11,
		"type":"VEC3",
		"count":576,
		"componentType":5126,
		"byteOffset":0,
		"min":[-132.00970458984376,
		11.47315788269043,
		109.87471008300781],
		"max":[132.22523498535157,
		60.94681930541992,
		202.4036407470703]
	},
	{
		"bufferView":12,
		"type":"SCALAR",
		"count":768,
		"componentType":5123,
		"byteOffset":0,
		"min":[0],
		"max":[191]
	},
	{
		"bufferView":13,
		"type":"VEC3",
		"count":192,
		"componentType":5126,
		"byteOffset":0,
		"min":[-132.04408264160157,
		11.438783645629883,
		120.130615234375],
		"max":[132.25961303710938,
		60.98119354248047,
		124.23626708984375]
	},
	{
		"bufferView":14,
		"type":"SCALAR",
		"count":1152,
		"componentType":5123,
		"byteOffset":0,
		"min":[0],
		"max":[255]
	},
	{
		"bufferView":15,
		"type":"VEC3",
		"count":256,
		"componentType":5126,
		"byteOffset":0,
		"min":[-121.69294738769531,
		21.78992462158203,
		260.12847900390627],
		"max":[121.90847778320313,
		50.63005447387695,
		276.901611328125]
	},
	{
		"bufferView":16,
		"type":"SCALAR",
		"count":4608,
		"componentType":5123,
		"byteOffset":0,
		"min":[0],
		"max":[1023]
	},
	{
		"bufferView":17,
		"type":"VEC3",
		"count":1024,
		"componentType":5126,
		"byteOffset":0,
		"min":[-129.28140258789063,
		14.2014741897583,
		109.87471008300781],
		"max":[129.49693298339845,
		58.218502044677737,
		289.66265869140627]
	},
	{
		"bufferView":18,
		"type":"SCALAR",
		"count":180,
		"componentType":5123,
		"byteOffset":0,
		"min":[0],
		"max":[63]
	},
	{
		"bufferView":19,
		"type":"VEC3",
		"count":64,
		"componentType":5126,
		"byteOffset":0,
		"min":[-125.75086975097656,
		17.731998443603517,
		123.19072723388672],
		"max":[125.96640014648438,
		54.6879768371582,
		123.19072723388672]
	},
	{
		"bufferView":20,
		"type":"SCALAR",
		"count":948,
		"componentType":5123,
		"byteOffset":0,
		"min":[0],
		"max":[255]
	},
	{
		"bufferView":21,
		"type":"VEC3",
		"count":256,
		"componentType":5126,
		"byteOffset":0,
		"min":[-128.48350524902345,
		14.999366760253907,
		205.50027465820313],
		"max":[128.69903564453126,
		57.42060852050781,
		269.9950866699219]
	},
	{
		"bufferView":22,
		"type":"SCALAR",
		"count":2688,
		"componentType":5123,
		"byteOffset":0,
		"min":[0],
		"max":[575]
	},
	{
		"bufferView":23,
		"type":"VEC3",
		"count":576,
		"componentType":5126,
		"byteOffset":0,
		"min":[-132.00970458984376,
		11.47315788269043,
		109.87471008300781],
		"max":[132.22523498535157,
		60.94681930541992,
		202.4036407470703]
	},
	{
		"bufferView":24,
		"type":"SCALAR",
		"count":768,
		"componentType":5123,
		"byteOffset":0,
		"min":[0],
		"max":[191]
	},
	{
		"bufferView":25,
		"type":"VEC3",
		"count":192,
		"componentType":5126,
		"byteOffset":0,
		"min":[-132.04408264160157,
		11.438783645629883,
		120.130615234375],
		"max":[132.25961303710938,
		60.98119354248047,
		124.23626708984375]
	},
	{
		"bufferView":26,
		"type":"SCALAR",
		"count":1152,
		"componentType":5123,
		"byteOffset":0,
		"min":[0],
		"max":[255]
	},
	{
		"bufferView":27,
		"type":"VEC3",
		"count":256,
		"componentType":5126,
		"byteOffset":0,
		"min":[-121.69294738769531,
		21.78992462158203,
		260.12847900390627],
		"max":[121.90847778320313,
		50.63005447387695,
		276.901611328125]
	},
	{
		"bufferView":28,
		"type":"SCALAR",
		"count":4608,
		"componentType":5123,
		"byteOffset":0,
		"min":[0],
		"max":[1023]
	},
	{
		"bufferView":29,
		"type":"VEC3",
		"count":1024,
		"componentType":5126,
		"byteOffset":0,
		"min":[-129.28140258789063,
		14.2014741897583,
		109.87471008300781],
		"max":[129.49693298339845,
		58.218502044677737,
		289.66265869140627]
	},
	{
		"bufferView":30,
		"type":"SCALAR",
		"count":180,
		"componentType":5123,
		"byteOffset":0,
		"min":[0],
		"max":[63]
	},
	{
		"bufferView":31,
		"type":"VEC3",
		"count":64,
		"componentType":5126,
		"byteOffset":0,
		"min":[-125.75086975097656,
		17.731998443603517,
		123.19072723388672],
		"max":[125.96640014648438,
		54.6879768371582,
		123.19072723388672]
	},
	{
		"bufferView":32,
		"type":"SCALAR",
		"count":948,
		"componentType":5123,
		"byteOffset":0,
		"min":[0],
		"max":[255]
	},
	{
		"bufferView":33,
		"type":"VEC3",
		"count":256,
		"componentType":5126,
		"byteOffset":0,
		"min":[-128.48350524902345,
		14.999366760253907,
		205.50027465820313],
		"max":[128.69903564453126,
		57.42060852050781,
		269.9950866699219]
	},
	{
		"bufferView":34,
		"type":"SCALAR",
		"count":1416,
		"componentType":5123,
		"byteOffset":0,
		"min":[0],
		"max":[239]
	},
	{
		"bufferView":35,
		"type":"VEC3",
		"count":240,
		"componentType":5126,
		"byteOffset":0,
		"min":[-183.89755249023438,
		-16.764328002929689,
		-18.70091438293457],
		"max":[19.897558212280275,
		16.887250900268556,
		18.70091438293457]
	},
	{
		"bufferView":36,
		"type":"SCALAR",
		"count":1686,
		"componentType":5123,
		"byteOffset":0,
		"min":[0],
		"max":[329]
	},
	{
		"bufferView":37,
		"type":"VEC3",
		"count":330,
		"componentType":5126,
		"byteOffset":0,
		"min":[-187.8094024658203,
		-3.7457211017608644,
		-454.0130615234375],
		"max":[23.809404373168947,
		9.731207847595215,
		192.03253173828126]
	},
	{
		"bufferView":38,
		"type":"SCALAR",
		"count":60,
		"componentType":5123,
		"byteOffset":0,
		"min":[0],
		"max":[23]
	},
	{
		"bufferView":39,
		"type":"VEC3",
		"count":24,
		"componentType":5126,
		"byteOffset":0,
		"min":[-185.60113525390626,
		-1.6458429098129273,
		-440.4556884765625],
		"max":[21.601133346557618,
		2.2958273887634279,
		84.3036117553711]
	},
	{
		"bufferView":40,
		"type":"SCALAR",
		"count":18,
		"componentType":5123,
		"byteOffset":0,
		"min":[0],
		"max":[9]
	},
	{
		"bufferView":41,
		"type":"VEC3",
		"count":10,
		"componentType":5126,
		"byteOffset":0,
		"min":[-163.7416229248047,
		3.725867986679077,
		43.75638961791992],
		"max":[-0.2583736479282379,
		8.278094291687012,
		89.49697875976563]
	},
	{
		"bufferView":42,
		"type":"SCALAR",
		"count":264,
		"componentType":5123,
		"byteOffset":0,
		"min":[0],
		"max":[99]
	},
	{
		"bufferView":43,
		"type":"VEC3",
		"count":100,
		"componentType":5126,
		"byteOffset":0,
		"min":[-187.79776000976563,
		-2.687410831451416,
		-454.1410217285156],
		"max":[23.797754287719728,
		3.7457211017608644,
		38.23052215576172]
	},
	{
		"bufferView":44,
		"type":"SCALAR",
		"count":576,
		"componentType":5123,
		"byteOffset":0,
		"min":[0],
		"max":[127]
	},
	{
		"bufferView":45,
		"type":"VEC3",
		"count":128,
		"componentType":5126,
		"byteOffset":0,
		"min":[-32.42717361450195,
		18.66888427734375,
		-183.42388916015626],
		"max":[32.42717361450195,
		23.134538650512697,
		-182.75015258789063]
	},
	{
		"bufferView":46,
		"type":"SCALAR",
		"count":13608,
		"componentType":5123,
		"byteOffset":0,
		"min":[0],
		"max":[2303]
	},
	{
		"bufferView":47,
		"type":"VEC3",
		"count":2304,
		"componentType":5126,
		"byteOffset":0,
		"min":[-33.23488235473633,
		17.86117935180664,
		-208.66259765625],
		"max":[33.23488235473633,
		23.942243576049806,
		-165.76658630371095]
	}],
	"buffers":[{
		"uri":"data:application/octet-stream;base64,",
		"byteLength":7440
	},
	{
		"uri":"data:application/octet-stream;base64,",
		"byteLength":744
	},
	{
		"uri":"data:application/octet-stream;base64,",
		"byteLength":5268
	},
	{
		"uri":"data:application/octet-stream;base64,",
		"byteLength":576
	},
	{
		"uri":"data:application/octet-stream;base64,",
		"byteLength":408
	},
	{
		"uri":"data:application/octet-stream;base64,",
		"byteLength":12288
	},
	{
		"uri":"data:application/octet-stream;base64,",
		"byteLength":3840
	},
	{
		"uri":"data:application/octet-stream;base64,",
		"byteLength":5376
	},
	{
		"uri":"data:application/octet-stream;base64,",
		"byteLength":21504
	},
	{
		"uri":"data:application/octet-stream;base64,",
		"byteLength":1128
	},
	{
		"uri":"data:application/octet-stream;base64,",
		"byteLength":4968
	},
	{
		"uri":"data:application/octet-stream;base64,",
		"byteLength":12288
	},
	{
		"uri":"data:application/octet-stream;base64,",
		"byteLength":3840
	},
	{
		"uri":"data:application/octet-stream;base64,",
		"byteLength":5376
	},
	{
		"uri":"data:application/octet-stream;base64,",
		"byteLength":21504
	},
	{
		"uri":"data:application/octet-stream;base64,",
		"byteLength":1128
	},
	{
		"uri":"data:application/octet-stream;base64,",
		"byteLength":4968
	},
	{
		"uri":"data:application/octet-stream;base64,",
		"byteLength":5712
	},
	{
		"uri":"data:application/octet-stream;base64,",
		"byteLength":7332
	},
	{
		"uri":"data:application/octet-stream;base64,",
		"byteLength":408
	},
	{
		"uri":"data:application/octet-stream;base64,",
		"byteLength":156
	},
	{
		"uri":"data:application/octet-stream;base64,",
		"byteLength":1728
	},
	{
		"uri":"data:application/octet-stream;base64,",
		"byteLength":2688
	},
	{
		"uri":"data:application/octet-stream;base64,",
		"byteLength":54864
	}],
	"materials":[{
		"pbrMetallicRoughness":{
			"baseColorFactor":[0.6588235294117647,
			0.6901960784313727,
			0.7647058823529411,
			1.0],
			"metallicFactor":0.0,
			"roughnessFactor":0.5
		},
		"emissiveFactor":[0.0,
		0.0,
		0.0],
		"alphaMode":"OPAQUE",
		"doubleSided":false,
		"name":"Mat"
	},
	{
		"pbrMetallicRoughness":{
			"baseColorFactor":[0.16078431372549019,
			0.16078431372549019,
			0.3607843137254902,
			1.0],
			"metallicFactor":0.0,
			"roughnessFactor":0.3
		},
		"emissiveFactor":[0.0,
		0.0,
		0.0],
		"alphaMode":"OPAQUE",
		"doubleSided":false,
		"name":"Mat.3"
	},
	{
		"pbrMetallicRoughness":{
			"baseColorFactor":[0.2776694411414983,
			0.2834625445897741,
			0.2896551724137931,
			1.0],
			"metallicFactor":0.0,
			"roughnessFactor":0.5
		},
		"emissiveFactor":[0.0,
		0.0,
		0.0],
		"alphaMode":"OPAQUE",
		"doubleSided":false,
		"name":"Mat.2"
	},
	{
		"pbrMetallicRoughness":{
			"baseColorFactor":[0.0,
			0.0,
			0.0,
			1.0],
			"metallicFactor":0.0,
			"roughnessFactor":0.1
		},
		"emissiveFactor":[0.0,
		0.0,
		0.0],
		"alphaMode":"OPAQUE",
		"doubleSided":false,
		"name":"Mat.4"
	},
	{
		"pbrMetallicRoughness":{
			"baseColorFactor":[0.0,
			0.0,
			0.0,
			1.0],
			"metallicFactor":0.0,
			"roughnessFactor":0.5
		},
		"emissiveFactor":[0.0,
		0.0,
		0.0],
		"alphaMode":"OPAQUE",
		"doubleSided":false,
		"name":"Mat.1"
	},
	{
		"pbrMetallicRoughness":{
			"baseColorFactor":[0.1401015228426401,
			0.13298977041407973,
			0.13298977041407973,
			1.0],
			"metallicFactor":0.0,
			"roughnessFactor":0.2
		},
		"emissiveFactor":[0.0,
		0.0,
		0.0],
		"alphaMode":"OPAQUE",
		"doubleSided":false,
		"name":"Mat.5"
	},
	{
		"pbrMetallicRoughness":{
			"baseColorFactor":[0.274627019505785,
			0.41457393903476016,
			0.7411167512690355,
			1.0],
			"metallicFactor":1.0,
			"roughnessFactor":1.0
		},
		"emissiveFactor":[0.12,
		0.3693333333333344,
		1.0],
		"alphaMode":"OPAQUE",
		"doubleSided":false,
		"name":"Mat.7"
	},
	{
		"pbrMetallicRoughness":{
			"baseColorFactor":[0.8705882352941177,
			0.7176470588235294,
			0.2431372549019608,
			1.0],
			"metallicFactor":0.0,
			"roughnessFactor":0.3
		},
		"emissiveFactor":[0.0,
		0.0,
		0.0],
		"alphaMode":"OPAQUE",
		"doubleSided":false,
		"name":"Mat.6"
	}]
}